M48
; DRILL file {KiCad (5.1.6)-1} date 12/11/20 14:44:06
; FORMAT={-:-/ absolute / metric / decimal}
; #@! TF.CreationDate,2020-12-11T14:44:06+11:00
; #@! TF.GenerationSoftware,Kicad,Pcbnew,(5.1.6)-1
; #@! TF.FileFunction,Plated,1,2,PTH
FMAT,2
METRIC
T1C0.400
T2C0.500
T3C0.600
T4C0.850
T5C0.900
T6C1.000
T7C1.020
T8C3.000
%
G90
G05
T1
X135.35Y-91.28
X137.8Y-118.4
X137.89Y-91.28
X138.6Y-108.2
X138.7Y-118.4
X139.6Y-118.4
X140.43Y-91.28
X141.475Y-122.025
X141.95Y-108.225
X142.98Y-91.28
X145.4Y-121.925
X147.15Y-118.95
X149.0Y-96.4
X149.0Y-101.0
X150.0Y-96.4
X150.0Y-101.0
X151.0Y-96.4
X151.0Y-101.0
X153.625Y-109.055
X162.7Y-104.1
X164.0Y-79.3
X166.0Y-77.3
X166.2Y-104.1
X169.8Y-80.43
X170.49Y-83.58
X170.49Y-85.18
X171.3Y-105.225
X172.7Y-80.44
X173.76Y-86.49
X175.0Y-85.6
X175.0Y-89.5
X176.1Y-88.275
X177.5Y-110.75
X183.4Y-127.3
X184.25Y-112.0
X184.785Y-120.715
X186.525Y-120.775
X188.5Y-125.3
X188.567Y-126.298
X189.8Y-127.1
X190.0Y-120.25
X194.25Y-127.0
T2
X131.05Y-127.8
X131.709Y-126.209
X131.709Y-129.391
X133.3Y-125.55
X133.3Y-130.05
X134.891Y-126.209
X134.891Y-129.391
X135.55Y-127.8
X201.75Y-78.0
X202.409Y-76.409
X202.409Y-79.591
X204.0Y-75.75
X204.0Y-80.25
X205.591Y-76.409
X205.591Y-79.591
X206.25Y-78.0
X201.65Y-127.8
X202.309Y-126.209
X202.309Y-129.391
X203.9Y-125.55
X203.9Y-130.05
X205.491Y-126.209
X205.491Y-129.391
X206.15Y-127.8
X131.05Y-78.0
X131.709Y-76.409
X131.709Y-79.591
X133.3Y-75.75
X133.3Y-80.25
X134.891Y-76.409
X134.891Y-79.591
X135.55Y-78.0
T4
X182.25Y-126.237
X187.25Y-126.237
T5
X166.1Y-100.5
X168.6Y-100.5
X171.1Y-100.5
X144.9Y-125.95
X144.9Y-129.25
X147.4Y-125.95
X147.4Y-129.25
X149.9Y-125.95
X149.9Y-129.25
T6
X184.95Y-76.425
X187.49Y-76.425
X190.03Y-76.425
X192.57Y-76.425
X195.11Y-76.425
X197.65Y-76.425
T7
X146.25Y-76.5
X158.95Y-76.5
T8
X204.0Y-78.0
X203.9Y-127.8
X133.3Y-78.0
X133.3Y-127.8
T3
G00X181.25Y-129.287
M15
G01X181.25Y-128.588
M16
G05
G00X188.25Y-128.588
M15
G01X188.25Y-129.287
M16
G05
T0
M30
